<svg
  aria-labelledby="keyvisual-title"
  role="img"
  xmlns="http://www.w3.org/2000/svg"
  xmlns:xlink="http://www.w3.org/1999/xlink"
  viewBox="0 0 1000 560"
>
    <title
    id="keyvisual-title"
    lang="en"
  >A hand with an outstretched index finger and pinkie finger.</title>
    <defs>
    <linearGradient
      id="basic-gradient"
      x1="16.801%"
      x2="86.661%"
      y1="6.685%"
      y2="92.541%"
    >
    <stop offset="0%" stop-color="yellow" />
    <stop offset="100%" stop-color="#020f75" />
    <animate
        attributeName="x1"
        values="0%;    0%;    50%;   100%;  100%;  100%;  50%;   0%;    0%"
        dur="8s"
        repeatCount="indefinite"
      />
    <animate
        attributeName="x2"
        values="100%;  100%;  50%;   0%;    0%;    0%;    50%;   100%;  100%"
        dur="8s"
        repeatCount="indefinite"
      />
    <animate
        attributeName="y1"
        values="50%;   0%;    0%;    0%;    50%;   100%;  100%;  100%;  50%"
        dur="8s"
        repeatCount="indefinite"
      />
    <animate
        attributeName="y2"
        values="50%;   100%;  100%;  100%;  50%;   0%;    0%;    0%;    50%"
        dur="8s"
        repeatCount="indefinite"
      />
    </linearGradient>
        <mask id="mask-hand" fill="black">
            <path
        id="hand-outline"
        d="M812 4c11-2 20-1 28 3s17 9 20 16c2 4 3 18 3 41 0 40-3 44-10 68l-19 70a242 242 0 0 1-29 76 935 935 0 0 0-51 154c-2 8-6 48-5 53 2 5-4 53-7 72-3 12-21 97-23 115-4 37-10 60-19 81-4 8-23 64-23 69-3 21-3 58 1 91a2763 2763 0 0 1 6 66c-3 3-17 6-36 7-16 1-147 19-155 15-46-6-70-10-72-13-2-4-16-8-19-10a1068 1068 0 0 0-5-98l-1-16c0-5-23-40-24-43l-33-96-10-40a1861 1861 0 0 1 8-274c0-4-8-43-10-47-1-5-14-40-15-51-2-18-5-35-12-66-8-31-8-33-9-50-2-21-3-53-2-53 1-1 13-24 23-29 5-2 23-3 28-1 15 7 23 21 32 58 4 15 5 20 8 47 2 23 9 47 20 74a1601 1601 0 0 1 24 87c3 2 4 2 6-3 2-2 2-5 2-14 0-14 1-33 4-43 4-15 16-32 27-37 17-8 38-8 52 0l8-3 16-23c4-5 49-14 54-13 15 4 31 17 37 30 2 4 15 41 16 53s3 17 6 17 8-4 11-9c6-7 16-26 17-30 0-3 77-180 81-197l17-60c3-7 13-30 17-35 5-6 10-9 17-9z"
      />
        </mask>
            <mask id="mask" fill="#black">
                <rect width="188" height="71" x="258" y="152" />
            </mask>
            <filter
      id="shadow"
      width="117.9%"
      height="124.1%"
      x="-13.5%"
      y="-10.8%"
      filterUnits="objectBoundingBox"
    >
    <feOffset dx="-20" dy="10" in="SourceAlpha" result="shadowOffsetOuter1" />
    <feGaussianBlur
        in="shadowOffsetOuter1"
        result="shadowBlurOuter1"
        stdDeviation="5"
      />
    <feColorMatrix
        in="shadowBlurOuter1"
        values="0 0 0 0 0   0 0 0 0 0   0 0 0 0 0  0 0 0 0.35 0"
      />
    </filter>

    </defs>

  <g>
	<g>
		<path
        class="keyvisual-border"
        mask="url(#mask-border)"
        fill="url(#basic-gradient)"
        d="M322.2,417.6l-168-291h336L322.2,417.6z M223.2,166.5l99,171.4l99-171.4H223.2z"
      />
		<g>
			<polygon
          class="keyvisual-border"
          mask="url(#mask-border)"
          fill="url(#basic-gradient)"
          points="542.8,316.1 588.8,316.1 620,262.1 651.2,316.1 697.2,316.1 620,182.4 			"
        />
			<polygon
          class="keyvisual-border"
          mask="url(#mask-border)"
          fill="url(#basic-gradient)"
          points="788,473.4 734,379.9 688,379.9 719,433.5 521,433.5 552,379.9 506,379.9 452,473.4 			"
        />
		</g>
		<polyline
        class="keyvisual-border"
        mask="url(#mask-border)"
        fill="url(#basic-gradient)"
        points="390.3,341.5 321.2,455.2 111.7,106.7 556.2,106.7 579.2,66.8 41.3,66.8 320.5,531.5 432.5,341.9 		
			"
      />
		<g>
			<polygon
          class="keyvisual-border"
          mask="url(#mask-border)"
          fill="url(#basic-gradient)"
          points="888.7,533.2 768.1,328.1 514.2,328.1 619.7,146.4 668.3,230.2 714.4,230.2 619.6,67 445,367.9 
				745.3,367.9 819,493.3 419.5,493.3 451,437.5 405.2,437.5 351.3,533.2 			"
        />
		</g>
	</g>
</g>
  </svg>
